<svg width="48" height="36" viewBox="0 0 48 36" fill="none" xmlns="http://www.w3.org/2000/svg">
<rect width="48" height="36" rx="5" fill="#9FD8FF" fill-opacity="0.33"/>
<path d="M15.8519 28C17.4269 28 18.7037 26.7232 18.7037 25.1481C18.7037 23.5731 17.4269 22.2963 15.8519 22.2963C14.2768 22.2963 13 23.5731 13 25.1481C13 26.7232 14.2768 28 15.8519 28Z" fill="#9FD8FF"/>
<path d="M24 28C25.575 28 26.8518 26.7232 26.8518 25.1481C26.8518 23.5731 25.575 22.2963 24 22.2963C22.4249 22.2963 21.1481 23.5731 21.1481 25.1481C21.1481 26.7232 22.4249 28 24 28Z" fill="#9FD8FF"/>
<path d="M32.1481 28C33.7232 28 35 26.7232 35 25.1481C35 23.5731 33.7232 22.2963 32.1481 22.2963C30.5731 22.2963 29.2963 23.5731 29.2963 25.1481C29.2963 26.7232 30.5731 28 32.1481 28Z" fill="#9FD8FF"/>
<path d="M15.8519 19.8518C17.4269 19.8518 18.7037 18.575 18.7037 17C18.7037 15.425 17.4269 14.1481 15.8519 14.1481C14.2768 14.1481 13 15.425 13 17C13 18.575 14.2768 19.8518 15.8519 19.8518Z" fill="#9FD8FF"/>
<path d="M24 19.8518C25.575 19.8518 26.8518 18.575 26.8518 17C26.8518 15.425 25.575 14.1481 24 14.1481C22.4249 14.1481 21.1481 15.425 21.1481 17C21.1481 18.575 22.4249 19.8518 24 19.8518Z" fill="#9FD8FF"/>
<path d="M32.1481 19.8518C33.7232 19.8518 35 18.575 35 17C35 15.425 33.7232 14.1481 32.1481 14.1481C30.5731 14.1481 29.2963 15.425 29.2963 17C29.2963 18.575 30.5731 19.8518 32.1481 19.8518Z" fill="#9FD8FF"/>
<path d="M15.8519 11.7037C17.4269 11.7037 18.7037 10.4269 18.7037 8.85185C18.7037 7.27682 17.4269 6 15.8519 6C14.2768 6 13 7.27682 13 8.85185C13 10.4269 14.2768 11.7037 15.8519 11.7037Z" fill="#9FD8FF"/>
<path d="M24 11.7037C25.575 11.7037 26.8518 10.4269 26.8518 8.85185C26.8518 7.27682 25.575 6 24 6C22.4249 6 21.1481 7.27682 21.1481 8.85185C21.1481 10.4269 22.4249 11.7037 24 11.7037Z" fill="#9FD8FF"/>
<path d="M32.1481 11.7037C33.7232 11.7037 35 10.4269 35 8.85185C35 7.27682 33.7232 6 32.1481 6C30.5731 6 29.2963 7.27682 29.2963 8.85185C29.2963 10.4269 30.5731 11.7037 32.1481 11.7037Z" fill="#9FD8FF"/>
</svg>
